<svg width="24" height="24" viewBox="0 0 24 24" fill="none" xmlns="http://www.w3.org/2000/svg">
<path d="M11 4H4C3.44772 4 3 4.44772 3 5V20C3 20.5523 3.44772 21 4 21H19C19.5523 21 20 20.5523 20 20V13" stroke="currentColor" stroke-width="2" stroke-linecap="round" stroke-linejoin="round"/>
<path d="M18.5 2.5C18.8978 2.10217 19.4374 1.87868 20 1.87868C20.5626 1.87868 21.1022 2.10217 21.5 2.5C21.8978 2.89782 22.1213 3.43739 22.1213 4C22.1213 4.56261 21.8978 5.10217 21.5 5.5L12 15L8 16L9 12L18.5 2.5Z" stroke="currentColor" stroke-width="2" stroke-linecap="round" stroke-linejoin="round"/>
</svg>
